<svg width="189" height="189" viewBox="0 0 189 189" fill="none" xmlns="http://www.w3.org/2000/svg">
<path fill-rule="evenodd" clip-rule="evenodd" d="M71.6537 45.4064C71.3006 45.5117 69.8561 46.5695 68.4436 47.7573C66.2806 49.5759 63.3026 51.7062 60.55 53.4035C59.9508 53.7731 59.9365 53.8228 60.0598 55.098C60.1297 55.8205 60.5719 58.1453 61.0427 60.264C61.775 63.5609 61.9756 64.1781 62.4338 64.5455C62.8273 64.861 62.9157 65.0596 62.767 65.2946C62.4573 65.7844 62.5202 66.4932 62.9016 66.8097C63.0904 66.9666 63.3232 67.3007 63.4191 67.5526C63.5147 67.8042 64.1307 68.3671 64.7877 68.8032C65.9823 69.5962 65.9825 69.5966 65.9848 70.7084C65.9861 71.3202 66.0484 72.1904 66.1229 72.6424L66.2588 73.4642L65.0233 73.3099C64.0202 73.1845 63.8062 73.211 63.8852 73.4511C64.026 73.8793 65.7635 74.2798 72.1888 75.3642C75.1723 75.8679 79.354 75.9088 81.4982 75.4557C82.4527 75.2539 84.2955 74.5107 86.5767 73.4072C89.6608 71.9156 90.5063 71.6042 92.6759 71.1618C94.0612 70.8791 95.2188 70.6469 95.2484 70.6459C95.2779 70.6446 95.3018 70.5472 95.3018 70.4295C95.3018 69.9433 92.2148 70.3197 89.7376 71.1081C88.9725 71.3515 86.9758 72.231 85.3005 73.0625C83.6253 73.8941 82.2102 74.5299 82.1559 74.4758C82.1017 74.4214 82.0403 73.2253 82.0193 71.8178L81.9814 69.2587L82.6691 69.1181C83.4793 68.9524 84.8154 67.7355 84.8154 67.1633C84.8154 66.9433 84.9172 66.573 85.0416 66.3404C85.1661 66.108 85.305 65.5606 85.3506 65.124C85.3962 64.6874 85.4914 63.926 85.562 63.432C85.7285 62.2689 84.7531 57.8066 84.2514 57.4365C83.9505 57.2146 84.1701 57.0483 85.7784 56.2807C87.5665 55.4268 89.0956 54.3428 89.0956 53.9285C89.0956 53.5555 88.2019 53.7436 87.5258 54.2593C87.1489 54.5467 86.0237 55.1864 85.0255 55.6806C84.0272 56.1749 82.7433 56.9094 82.1728 57.3128C81.6022 57.7162 81.0944 58.0054 81.0443 57.9553C80.807 57.718 81.2769 57.1731 81.8222 57.0532C82.5796 56.887 82.7868 56.6391 83.0774 55.5511C83.2535 54.8928 83.4579 54.6336 83.9467 54.449C84.3833 54.2842 84.7377 53.8955 85.0645 53.2231C85.46 52.4088 85.6442 52.2387 86.1294 52.2387C86.8645 52.2387 87.1121 51.8892 86.512 51.6987C85.9826 51.5307 84.6095 51.7539 84.2268 52.07C83.7785 52.4405 83.9005 50.7369 84.3873 49.8287C84.9247 48.8261 84.9236 48.8145 84.2949 48.8145C83.5125 48.8145 82.9809 49.7512 82.4675 52.0343C82.4384 52.1633 82.4106 52.2872 82.3839 52.406C81.9722 54.2381 81.8285 54.8779 81.745 54.8702C81.7003 54.866 81.6729 54.6753 81.6308 54.3824C81.6257 54.347 81.6204 54.31 81.6148 54.2718C81.5461 53.8009 81.574 52.9969 81.6765 52.4852C81.7946 51.895 81.7846 51.4764 81.6487 51.3405C81.3674 51.0592 80.5352 51.3293 80.5352 51.7017C80.5352 51.8611 80.309 52.2641 80.0327 52.5967C79.7564 52.9295 79.4628 53.478 79.3801 53.8155C79.0953 54.9816 79.0093 54.2018 79.2398 52.5436C79.512 50.5861 80.0551 49.727 81.4464 49.0535C82.7542 48.4205 84.3097 48.1725 86.972 48.1725C89.1168 48.1725 89.9914 47.9698 89.1837 47.6599C88.5141 47.4029 83.8427 47.539 82.5041 47.8547C80.8324 48.2487 80.0898 48.6266 78.9592 49.6586C78.2442 50.3111 77.8478 50.4947 76.897 50.6145C75.1622 50.833 74.2144 51.1613 73.4315 51.8149C72.8028 52.3397 72.764 52.4355 73.044 52.7726C73.3127 53.0966 73.6378 53.1336 75.4443 53.0468L77.5337 52.9462L77.4827 54.6247C77.4549 55.5477 77.417 56.3033 77.3988 56.304C77.3804 56.3044 76.9725 55.9766 76.4921 55.5751C75.8978 55.0786 75.4781 54.8821 75.1789 54.9602C74.9373 55.0236 74.7674 55.1586 74.8016 55.2605C74.8359 55.3623 76.1614 56.7556 77.7475 58.3566C80.3616 60.9953 83.6764 63.7952 84.1866 63.7952C84.297 63.7952 84.3873 63.8915 84.3873 64.0092C84.3873 64.803 82.6155 63.4607 77.961 59.1405C76.4073 57.6985 75.0028 56.5189 74.8397 56.5189C74.6764 56.5189 74.5429 56.4226 74.5429 56.3048C74.5429 55.6727 73.5908 56.2867 72.2082 57.8104C71.3503 58.7561 69.7187 60.2687 68.5827 61.1716C67.4469 62.0748 66.0623 63.2381 65.5059 63.7571C64.8739 64.3465 64.3718 64.6538 64.1683 64.5757C63.989 64.507 63.8471 64.3754 63.8529 64.2834C63.8587 64.1915 64.6963 63.5891 65.7141 62.9449C66.9843 62.1413 68.6253 60.7404 70.9445 58.48C72.8034 56.6687 74.2715 55.101 74.2069 54.9966C73.8441 54.4096 73.0031 54.9607 70.3907 57.498C66.7807 61.0037 63.6061 63.6302 63.3219 63.346C63.2324 63.2565 61.6454 56.0585 61.4087 54.6694C61.2984 54.022 61.3558 53.961 62.9429 53.038C65.0002 51.8412 67.54 49.9637 69.8653 47.921C70.8489 47.0568 71.8275 46.2141 72.0398 46.0482C72.3891 45.7756 72.5528 45.8706 73.7519 47.0421C75.5748 48.8231 77.0419 49.8845 77.6803 49.8845C77.9754 49.8845 78.1847 49.7927 78.1453 49.6804C78.1061 49.568 77.0393 48.5087 75.7745 47.3263C73.3519 45.0614 73.1407 44.963 71.6537 45.4064ZM90.2733 47.9576C90.0941 48.2474 90.3629 48.3486 96.4789 50.2922C99.4215 51.2272 103.033 52.3756 104.504 52.8441C110.636 54.7961 113.965 56.0759 114.896 56.8386C116.535 58.1815 117.406 57.6324 115.857 56.2329C115.242 55.6769 114.499 55.314 113.129 54.8997C112.093 54.5863 110.379 53.9918 109.32 53.5784C108.26 53.1649 105.708 52.32 103.648 51.7011C101.588 51.0821 97.9248 49.9387 95.5067 49.1601C90.9855 47.7042 90.4988 47.5925 90.2733 47.9576ZM77.7727 51.7571C77.6197 52.3285 77.5664 52.3474 75.9185 52.4109C74.2473 52.4751 74.2298 52.4704 74.7503 52.0985C75.2662 51.7295 76.8632 51.2118 77.5741 51.1829C77.8594 51.1714 77.8988 51.2855 77.7727 51.7571ZM89.0956 54.5645C89.0956 54.6666 90.0346 55.1079 91.1822 55.5451C94.874 56.9516 95.9978 57.6234 99.582 60.5664C101.203 61.8971 102.02 62.2993 102.377 61.9423C102.631 61.6874 98.5452 58.189 96.6405 57.0314C94.1723 55.5316 89.0956 53.8718 89.0956 54.5645ZM80.013 56.9218C79.8294 57.2771 79.6791 57.765 79.6791 58.0062C79.6791 58.6224 79.4647 58.5327 78.6377 57.5707L77.9174 56.7329H78.6005C79.0572 56.7329 79.4377 56.5584 79.7489 56.2066C80.3331 55.5458 80.4964 55.9873 80.013 56.9218ZM77.8247 60.3927C79.7275 62.17 81.8862 64.0203 82.6218 64.5042C83.3575 64.9881 83.9593 65.4358 83.9593 65.4991C83.9593 65.6622 82.7022 65.6055 82.5314 65.4347C82.2376 65.1409 81.3741 65.3104 80.9369 65.7476C80.4969 66.1876 80.4853 66.3408 80.5741 70.5611L80.6657 74.9199L79.9492 75.0545C78.5509 75.3166 74.0076 74.9877 70.7757 74.39L67.5433 73.7922L67.3967 71.0942C67.2366 68.1524 67.0102 66.6634 66.6716 66.3248C66.5517 66.205 66.2406 66.1743 65.9801 66.257C65.5645 66.389 65.523 66.5091 65.6401 67.2414C65.7135 67.7 65.718 68.0754 65.6499 68.0754C65.303 68.0754 64.6984 67.5932 64.6984 67.3167C64.6984 67.1432 64.5058 66.8363 64.2704 66.6347C63.7936 66.2264 63.6964 65.6836 64.1099 65.7373C64.7307 65.8178 64.9993 65.6558 66.3656 64.3769C67.1553 63.6375 68.5887 62.4349 69.5509 61.7045C70.5131 60.9741 71.9555 59.653 72.7565 58.7687C73.5574 57.8845 74.2471 57.1609 74.2891 57.1609C74.331 57.1609 75.9222 58.6151 77.8247 60.3927ZM83.6075 59.6755C83.8202 60.7055 84.0862 61.7773 84.1988 62.0572C84.3114 62.3374 84.3664 62.6034 84.3212 62.6485C84.1658 62.8039 81.5797 60.5883 80.3888 59.2796L79.9216 58.766L80.862 58.7606C81.4944 58.757 81.9979 58.6031 82.3994 58.2909C82.7277 58.0355 83.0468 57.8213 83.1086 57.8149C83.1703 57.8083 83.3948 58.6457 83.6075 59.6755ZM71.6955 60.9324C70.2749 61.9132 69.8862 62.5111 70.6693 62.5111C71.0802 62.5111 74.0943 60.4006 74.1076 60.1035C74.1279 59.6547 72.9695 60.0528 71.6955 60.9324ZM74.5433 60.2105C74.5435 60.3578 74.9527 60.7393 75.4529 61.0589C75.9528 61.3782 76.7406 61.9802 77.2035 62.3964C77.6661 62.8127 78.1661 63.1532 78.3144 63.1532C78.959 63.1532 78.7976 62.6273 77.8838 61.7518C76.4349 60.3635 74.5422 59.4902 74.5433 60.2105ZM114.593 62.3506C112.975 65.6631 108.212 72.5063 103.981 77.5988C100.783 81.4478 100.468 81.986 101.416 81.986C101.885 81.986 102.673 81.1418 105.854 77.2245C113.044 68.3731 117.729 60.585 115.865 60.585C115.564 60.585 115.226 61.0544 114.593 62.3506ZM101.907 64.7961C99.4213 67.2102 98.2244 68.6393 98.4215 68.9582C98.4853 69.0611 98.7641 69.1454 99.0415 69.1454C99.3933 69.1454 99.7755 68.8386 100.307 68.1289C100.726 67.5697 101.988 66.2041 103.112 65.094C104.237 63.984 105.122 62.9728 105.08 62.8469C104.86 62.1854 104.14 62.6276 101.907 64.7961ZM83.5163 66.8433C83.407 67.2251 83.3173 67.5586 83.3173 67.584C83.3173 67.6097 83.1065 67.8271 82.8488 68.0671C82.0786 68.7846 81.8192 68.6282 81.8192 67.4462V66.3892L82.6218 66.3051C83.0633 66.2591 83.4898 66.2052 83.5698 66.1853C83.6499 66.1656 83.6259 66.4618 83.5163 66.8433ZM96.6604 70.3298C96.4325 70.9241 96.7627 77.2808 97.1049 78.8829C97.7296 81.8086 98.1165 82.8421 98.6357 82.9724C98.9255 83.0452 99.1737 83.3191 99.2595 83.6611C99.4545 84.4382 99.7697 84.5788 100.486 84.2083C101.092 83.895 101.118 83.4841 100.532 83.4841C100.363 83.4841 100.224 83.3878 100.224 83.2701C100.224 83.1524 100.048 83.0561 99.8339 83.0561C99.5258 83.0561 99.3882 82.7742 99.1808 81.7185C98.4495 77.9956 98.2546 76.4691 98.1217 73.4256L97.977 70.1085L97.3872 70.0407C96.9898 69.9949 96.7528 70.0892 96.6604 70.3298ZM53.6769 73.0704C51.8854 73.7379 50.1325 74.9869 47.1594 77.7142C45.7532 79.0045 44.4604 80.06 44.2866 80.06C43.9211 80.06 43.0834 81.0487 43.0834 81.4799C43.0834 81.9486 43.6086 81.8178 44.1697 81.2094C44.455 80.8999 44.9774 80.5233 45.3305 80.3722C45.6836 80.2213 47.0801 79.1485 48.4337 77.9883C51.702 75.187 52.4085 74.6517 53.6887 74.0063C55.2602 73.214 56.0832 73.1254 59.0152 73.4329C61.3796 73.6807 62.6185 73.6285 62.2848 73.2947C62.065 73.0751 57.9839 72.5777 56.459 72.585C55.4485 72.5897 54.5432 72.7477 53.6769 73.0704Z" fill="#015DBB"/>
<path fill-rule="evenodd" clip-rule="evenodd" d="M41.1034 82.4922C39.7031 83.0148 38.2984 84.3076 37.886 85.4528C37.7304 85.8849 38.3602 86.1537 39.0296 85.9414C39.6969 85.7295 41.5293 86.0452 42.0418 86.4604C42.7378 87.0238 42.4168 87.7643 41.4766 87.7643C40.5281 87.7643 40.3004 88.16 41.1507 88.3302C41.5158 88.4031 41.9094 88.6403 42.0253 88.8568C42.2721 89.3178 42.0878 93.0035 41.7904 93.5595C41.4105 94.2694 40.1714 94.8052 37.834 95.2709C36.5426 95.5282 35.2029 95.8826 34.8569 96.0583C34.2581 96.3624 34.2472 96.3921 34.6302 96.6723C35.0212 96.9584 35.0206 96.9667 34.6052 96.9667C34.3488 96.9667 33.533 97.6469 32.5676 98.6656C30.9328 100.391 30.2642 100.764 29.2614 100.512C27.8797 100.166 27.2499 98.7679 27.248 96.045C27.2452 92.3377 27.8408 91.5499 33.1249 88.269C35.1832 86.9909 36.8696 85.8605 36.8722 85.7567C36.8863 85.217 35 86.0268 32.0966 87.8071C26.8831 91.0042 25.9774 92.1363 25.7955 95.6827C25.6868 97.8067 25.962 99.0328 26.7609 99.9824C27.4887 100.847 28.4468 101.247 29.794 101.247C31.1971 101.247 31.7539 101.012 32.9503 99.9154C33.8547 99.0861 33.9368 99.0504 33.8215 99.5349C32.3538 105.697 34.0019 113.688 38.8642 123.988C39.5734 125.49 40.1115 126.761 40.0601 126.813C40.0087 126.864 39.0547 127.02 37.9403 127.158C35.8152 127.422 35.2599 127.646 35.8088 128.019C36.0095 128.155 36.8833 128.178 38.1612 128.082C40.8297 127.881 41.0234 127.861 44.1535 127.473C45.6248 127.291 47.6472 127.047 48.6477 126.931C49.6482 126.815 57.1118 125.946 65.2334 125.002C88.2031 122.33 86.2467 122.516 86.9503 122.932C88.0232 123.566 96.9883 126.553 100.866 127.569C101.396 127.708 102.444 128.066 103.197 128.365L104.564 128.908L107.905 128.558C109.742 128.366 112.401 128.115 113.814 128C115.226 127.886 117.778 127.605 119.485 127.375C121.192 127.146 123.84 126.9 125.37 126.828C129.632 126.627 132.372 126.298 135.536 125.609C137.543 125.172 139.306 124.942 141.314 124.856C144.866 124.704 145.46 124.494 146.015 123.2C146.56 121.929 148.258 116.271 148.659 114.393C148.833 113.578 149.376 111.081 149.865 108.844C150.962 103.83 151.367 100.924 151.355 98.1438C151.345 95.605 150.894 93.8976 150.072 93.2839C148.867 92.3846 145.009 92.5496 139.067 93.7547C137.419 94.089 135.011 94.4241 133.717 94.4996C129.857 94.7248 123.699 95.2393 119.592 95.6799C117.473 95.9072 114.612 96.1944 113.233 96.3183C110.356 96.5766 109.715 96.7664 109.433 97.444C108.832 98.8877 107.667 104.629 105.993 114.407C105.51 117.231 105.067 119.588 105.01 119.646C104.952 119.703 103.311 120.012 101.362 120.331C98.1751 120.854 97.7705 120.88 97.333 120.594C96.9018 120.311 96.5425 120.313 94.1667 120.605C92.6929 120.787 91.3275 120.936 91.1325 120.936C90.8209 120.936 90.7937 120.723 90.9076 119.17C90.9786 118.199 91.1338 116.056 91.2524 114.409C91.6879 108.356 91.9119 106.207 92.435 103.066C93.1857 98.5571 94.4043 93.0895 94.7461 92.6966C95.1411 92.2423 99.0659 86.6352 99.5868 85.7807C100.116 84.9122 100.115 84.7682 99.5799 84.7682C99.0761 84.7682 99.0545 84.7924 96.7802 87.9278C95.4104 89.8167 94.9706 90.2875 94.7491 90.1037C94.1224 89.5836 93.6724 90.0711 93.3989 91.5658C93.2538 92.3587 92.7594 94.5966 92.3004 96.5387C91.8411 98.4809 91.2267 101.466 90.935 103.173C90.3649 106.508 89.5236 116.058 89.5236 119.196V121.112L88.721 121.243C87.6452 121.417 64.0744 124.146 63.6427 124.146C63.4043 124.146 62.9632 123.26 62.1562 121.158C61.5251 119.514 60.3833 117.035 59.6189 115.647C56.8719 110.661 56.7777 110.428 56.0263 106.737C55.218 102.767 54.7671 101.347 53.3591 98.3394L52.3488 96.1809L52.9366 95.959C53.2598 95.837 53.684 95.4937 53.8787 95.1962C54.3271 94.5121 54.9965 91.2103 55.2681 88.343C55.383 87.1293 55.5392 85.9748 55.615 85.7775C55.7029 85.5482 55.5112 85.1138 55.0844 84.5751C54.4724 83.8021 54.2528 83.6932 52.4577 83.2716C50.9791 82.9245 49.9176 82.822 48.1287 82.853C46.654 82.8787 45.5161 82.7952 45.1165 82.6317C44.1192 82.2238 42.0181 82.1508 41.1034 82.4922ZM43.8776 83.7007C44.3551 83.3253 44.4026 83.2093 44.1451 83.0465C43.6921 82.7599 42.4401 82.8128 41.6613 83.1518C40.929 83.4704 39.2312 84.9161 39.2312 85.221C39.2312 85.325 39.8121 85.4102 40.5221 85.4102C41.2322 85.4102 42.1471 85.5497 42.5552 85.7203L43.2974 86.0304V85.0939C43.2974 84.3301 43.4046 84.0729 43.8776 83.7007ZM53.7839 85.0915C53.7839 84.5415 53.1472 84.1617 51.6575 83.8229C49.3201 83.2913 45.7913 83.455 45.1501 84.1249C44.9573 84.3267 45.145 84.3517 46.0002 84.2385C47.2061 84.0789 51.3667 84.5918 52.8744 85.086C53.6412 85.3374 53.7839 85.3383 53.7839 85.0915ZM52.8127 86.9759C51.6815 87.2349 48.8914 86.9123 46.4806 86.2444C45.6744 86.021 44.9316 85.8382 44.8295 85.8382C44.5601 85.8382 44.6382 94.1127 44.9102 94.3849C45.3451 94.82 48.5537 95.5093 50.297 95.5425C51.6834 95.5686 52.129 95.5004 52.4125 95.2181C52.9253 94.7077 54.2175 87.4369 53.8898 86.9064C53.837 86.8212 53.3525 86.8524 52.8127 86.9759ZM149.777 101.445C150.324 97.148 149.951 94.1979 148.784 93.5993C147.803 93.0957 144.352 93.3782 139.495 94.3597C136.776 94.909 136.208 94.973 130.506 95.3692C127.917 95.5491 123.968 95.8907 121.732 96.128C119.496 96.3652 116.207 96.6875 114.424 96.8439C112.641 97.0004 111.083 97.19 110.961 97.2653C110.839 97.3404 110.625 97.9542 110.486 98.629C110.346 99.3037 110.056 100.53 109.84 101.354C109.625 102.178 109.158 104.489 108.804 106.49L108.72 106.963L108.654 107.336L108.629 107.474C108.267 109.521 107.756 112.403 107.402 114.409C106.985 116.763 106.498 119.844 106.321 121.257C105.977 123.992 105.627 126.426 105.431 127.442L105.312 128.064L106.888 127.928C114.237 127.296 116.127 127.107 118.843 126.738C120.55 126.505 123.343 126.256 125.049 126.183C129.176 126.007 131.407 125.735 135.001 124.97C137.084 124.527 138.892 124.295 140.935 124.208C143.247 124.11 143.938 124.01 144.179 123.74C144.791 123.053 146.707 116.621 147.822 111.506C148.244 109.572 148.774 107.161 149.001 106.151C149.227 105.14 149.577 103.023 149.777 101.445ZM104.005 127.499C104.154 127.35 104.905 122.104 104.922 121.096C104.933 120.447 104.646 120.386 103.22 120.735C102.081 121.014 95.594 121.94 91.9847 122.338C90.2191 122.532 88.7414 122.723 88.7007 122.761C88.6096 122.848 98.1713 125.978 101.455 126.936C102.78 127.323 103.928 127.576 104.005 127.499Z" fill="#015DBB"/>
</svg>
