<svg width="168" height="176" viewBox="0 0 168 176" fill="none" xmlns="http://www.w3.org/2000/svg">
<ellipse cx="83" cy="171.385" rx="81" ry="4" fill="#015DBB"/>
<path fill-rule="evenodd" clip-rule="evenodd" d="M127.804 2.55031C126.443 2.85399 126.214 2.81875 126.96 2.42061C127.958 1.88703 128.744 1.71741 129.53 2.16537L127.804 2.55031ZM129.766 2.31841C129.687 2.26106 129.608 2.21013 129.53 2.16537L129.669 2.13439L129.766 2.31841ZM129.766 2.31841C131.096 3.2872 132.489 6.08795 134.97 11.9405C137.718 18.4191 143.601 36.4855 143.136 37.0153C143.027 37.1398 141.784 33.4625 140.374 28.8439C137.448 19.2569 134.178 10.6934 131.507 5.62306L129.766 2.31841ZM110.88 8.05115C110.753 7.94004 113.736 6.79769 117.508 5.51276C123.976 3.30986 126.122 2.7048 125.647 3.21896C125.272 3.62511 111.115 8.2572 110.88 8.05115ZM65.0564 16.9989C79.6414 11.2173 89.4182 7.84126 94.9999 6.65983C96.7201 6.29565 99.4911 5.87957 101.158 5.73506C104.14 5.47635 104.204 5.50074 105.213 7.30287C106.186 9.04231 106.343 9.11346 108.336 8.72452C110.427 8.31651 110.429 8.31746 108.761 8.98896C107.841 9.35996 107.098 9.81977 107.11 10.0113C107.123 10.2034 108.465 13.1131 110.093 16.4781C112.515 21.4839 113.234 22.562 114.048 22.4093C120.485 21.2031 125.762 21.9516 130.729 24.775C142.294 31.349 144.846 46.8219 136.052 57.0437C132.107 61.6287 132.737 62.1635 139.48 59.9542C142.165 59.0739 145.074 58.3138 145.942 58.2648C146.811 58.2159 144.728 59.0853 141.312 60.1968C137.897 61.3082 135.017 62.3112 134.911 62.4259C134.805 62.5407 135.352 63.3726 136.128 64.2747C136.903 65.1763 137.724 66.3349 137.953 66.8484C138.257 67.5309 138.668 67.6651 139.48 67.3483C140.369 67.0004 140.536 67.0904 140.317 67.7976C140.087 68.5346 140.209 68.5773 141.046 68.0564C141.888 67.5325 142.061 67.5983 142.118 68.4634C142.155 69.0318 142.608 69.5877 143.124 69.6998C143.64 69.8119 143.168 69.8338 142.076 69.7494C139.235 69.529 139.097 70.679 141.537 74.2392C145.13 79.4812 153.461 84.0267 159.3 83.9298C161.541 83.893 162.345 84.3181 161.041 84.8495C160.559 85.0465 160.685 86.0091 161.581 88.9543C163.223 94.3563 162.999 94.7488 161.265 89.5072L159.824 85.1528L156.463 84.4384C151.859 83.4593 148.822 82.152 145.869 79.8773C144.494 78.8184 142.89 77.9832 142.305 78.0216C140.503 78.1395 137.672 74.5187 133.925 67.3029C133.368 66.2295 133.163 65.4841 133.469 65.6469C133.775 65.8092 134.009 65.6913 133.989 65.3851C133.969 65.0788 134.323 64.8035 134.776 64.7739C135.462 64.7289 135.38 64.384 134.278 62.6925C132.867 60.5262 132.733 60.4504 131.68 61.218C131.138 61.6133 131.141 61.9662 131.695 62.9266L132.393 64.1372L131.36 63.0294C130.726 62.3496 130.086 62.0966 129.7 62.3739C129.227 62.7157 130.067 65.5229 133.148 73.8933C135.389 79.98 138.483 88.5641 140.023 92.9685C141.564 97.373 142.996 101.15 143.205 101.362C143.415 101.574 145.778 101.004 148.458 100.095C151.137 99.1857 153.804 98.4308 154.385 98.4166C154.965 98.4029 152.744 99.3204 149.45 100.456L143.459 102.521L145.788 109.371C147.925 115.658 148.217 116.214 149.335 116.141C150.882 116.039 158.508 112.529 159.406 111.506L159.051 113.139C159.021 112.901 158.808 112.978 158.407 113.181C157.906 113.436 155.463 114.503 152.98 115.553C150.051 116.792 148.567 117.685 148.755 118.095C148.915 118.443 149.257 119.547 149.513 120.55C149.976 122.353 149.949 122.391 146.916 124.179C140.598 127.906 121.28 135.228 104.023 140.439C88.821 145.029 74.764 147.859 73.8102 146.519C73.5023 146.087 72.0512 146.541 68.5517 148.165C61.3889 151.488 54.6324 153.541 48.3625 154.3L42.8371 154.969L38.2791 143.171C22.3299 101.883 2.0708 47.2511 2.36199 46.3146C2.46985 45.9683 8.31866 43.3054 15.3589 40.3965C22.3993 37.4882 28.4488 34.9855 28.8021 34.8356C29.1559 34.6856 29.461 34.8099 29.4808 35.1119C29.5005 35.4135 23.5997 38.0252 16.3675 40.9155L3.2182 46.1703L3.61151 47.73C4.19518 50.042 12.0227 71.0705 27.81 112.735C35.548 133.156 42.1737 150.738 42.5342 151.804L43.1896 153.743L46.6777 153.51C53.2283 153.074 61.3166 150.634 69.3761 146.663L73.0469 144.854L71.5659 141.284C70.7514 139.32 68.8668 134.404 67.3785 130.359C65.8897 126.315 64.4816 122.816 64.2492 122.585C64.0169 122.354 58.9092 124.067 52.8988 126.393C46.8885 128.719 41.6922 130.549 41.3518 130.459C40.7195 130.294 56.0539 124.012 60.9612 122.427C62.549 121.914 63.6591 121.256 63.6321 120.843C63.5874 120.161 57.9658 104.653 57.6719 104.401C57.5918 104.333 53.4733 105.931 48.5189 107.952C39.0421 111.818 35.5155 112.997 36.3655 112.015C36.989 111.295 44.1962 108.223 51.3938 105.61C54.4514 104.5 57.0196 103.519 57.0999 103.431C57.3189 103.192 52.575 90.0401 52.1106 89.598C51.8908 89.3883 50.6862 89.6606 49.4343 90.2029C46.3579 91.5337 33.4628 96.2459 32.7724 96.2912C30.4443 96.4436 38.8428 92.7915 47.407 89.9271L51.8696 88.4347L50.0217 83.5716C49.0057 80.8963 48.0735 78.6193 47.9501 78.5117C47.8268 78.4035 44.8083 79.4805 41.2413 80.9047C34.1061 83.7538 28.0649 85.7052 27.6113 85.3073C27.4504 85.1662 27.9796 84.7494 28.7867 84.38C31.3519 83.2079 44.9748 78.0527 45.6458 78.0003C47.8762 77.8263 47.8129 77.553 42.2242 63.1704C42.1142 62.887 41.6763 63.4473 41.2515 64.4163C40.0665 67.1184 37.6305 70.0302 35.4891 71.3056C32.4702 73.103 32.4809 72.7091 35.5072 70.6127C38.7857 68.3417 41.2177 64.7076 40.5689 63.0484C39.9493 61.4623 35.9539 59.0888 34.1084 59.2097C32.6539 59.3049 32.5932 59.4029 33.0373 60.9382C33.4826 62.477 33.4328 62.5559 32.1178 62.3925C31.3527 62.2978 30.7325 62.2459 30.7389 62.2783C30.7452 62.3101 31.1541 63.261 31.6467 64.3915C32.7032 66.8141 33.0017 69.3234 32.2392 69.3733C31.5872 69.416 30.5744 67.3218 29.902 64.5416C29.4919 62.8472 29.1372 62.4423 27.8361 62.184C25.9106 61.8017 25.7614 61.9362 26.7722 63.1436C27.4499 63.9538 27.6815 63.9794 28.3762 63.3219C29.0758 62.6588 29.1498 62.6751 28.9129 63.439C28.5266 64.6824 27.3923 64.6166 26.3261 63.2886C25.4808 62.2357 25.3323 62.219 24.0854 63.0389C21.5525 64.7041 19.102 70.2746 20.3298 71.5773C21.4987 72.8178 26.238 73.6072 29.5312 73.1099C31.4324 72.8227 32.3144 72.8299 31.7055 73.1277C29.8262 74.0472 25.7599 74.0375 22.6708 73.1067C14.6438 70.6886 10.0558 62.6701 12.0268 54.5054C13.0936 50.0861 17.0258 45.6029 21.2683 43.969C24.7844 42.6147 29.3392 42.5147 32.1225 43.7303C33.0964 44.1559 34.0119 44.3687 34.1575 44.2033C34.4048 43.9207 32.9655 40.4619 30.0133 34.2447L28.7363 31.5553L30.6896 30.0703C33.2662 28.1121 38.4539 26.0063 45.2453 24.1627C48.2819 23.3382 57.1967 20.1147 65.0564 16.9989ZM112.164 22.7293C112.119 22.144 108.235 14.0794 105.406 8.69547C103.848 5.73015 103.733 5.70016 98.7189 6.95962C88.0826 9.63096 77.4798 13.2181 61.4926 19.5544C55.8263 21.8005 47.8985 24.5693 43.8751 25.7074C36.0515 27.9213 30.8959 30.0975 30.1446 31.5044C29.8052 32.1396 30.385 33.8684 32.3129 37.9685C36.4449 46.7551 43.287 64.0267 53.8245 92.2704C59.1703 106.599 65.6993 123.77 68.3332 130.428C70.9671 137.087 73.4173 143.288 73.7778 144.209C74.3408 145.648 74.6755 145.868 76.151 145.771C78.5922 145.611 94.7876 141.672 103.252 139.179C117.924 134.858 146.259 124.322 148.474 122.364C149.132 121.783 147.879 117.931 138.768 92.5223C129.231 65.9244 128.214 63.367 127.264 63.5671C126.691 63.6877 125.049 64.0388 123.616 64.3472C117.971 65.5623 111.505 64.0963 106.844 60.5435C95.3743 51.8013 95.45 34.4567 106.994 25.9739C108.297 25.0166 110.004 24.0302 110.786 23.7813C111.569 23.5329 112.189 23.059 112.164 22.7293ZM116.813 19.338C116.331 19.2771 119.306 18.1406 123.425 16.8112C131.433 14.228 132.392 13.9739 131.203 14.7541C129.952 15.5737 117.763 19.4571 116.813 19.338ZM75.6778 26.8378C75.4043 26.8256 78.8863 25.3055 83.4162 23.4599C91.2991 20.2485 95.0501 19.0337 91.6094 20.8064C89.5512 21.8665 76.3414 26.8678 75.6778 26.8378ZM41.1846 36.588C42.9552 32.4741 47.0096 28.7756 51.4264 27.2461C51.9948 27.0487 54.0074 26.8562 55.899 26.8174C64.7888 26.6349 71.5921 32.61 72.4723 41.3718C72.8193 44.8302 72.7976 44.9923 72.2959 42.7046C71.9812 41.2718 71.7198 40.6051 71.7142 41.2227C71.7092 41.8408 71.4297 43.3262 71.0928 44.5247C70.5785 46.3563 70.5983 46.7397 71.2176 46.9317C71.6222 47.0574 72.0339 46.8714 72.1323 46.5177C72.2301 46.1641 72.2482 46.4731 72.1725 47.2048C71.9736 49.1309 69.4745 53.4347 67.6188 55.047C65.6532 56.7549 62.9985 58.3767 62.0824 58.4298C61.706 58.4518 62.5453 57.8309 63.9475 57.0504C66.6949 55.5208 67.9766 54.3038 69.8241 51.4696C71.9377 48.2274 71.8466 47.4745 69.2373 46.6238C66.8175 45.8346 62.4996 45.8494 62.0039 46.6481C61.8433 46.907 61.0223 47.485 60.1797 47.9329C58.7783 48.6784 58.7392 48.775 59.7255 49.0687C60.4785 49.2932 60.8947 49.127 61.1058 48.5175C61.3382 47.8454 61.4343 47.9163 61.5224 48.8269C61.6533 50.1802 61.6482 50.1827 59.7988 49.6146C58.6155 49.2513 58.3063 49.3884 57.6361 50.5738L56.8536 51.9568L55.2777 50.6336C53.3584 49.0211 52.7602 49.426 51.0562 53.4911C49.8033 56.4798 49.6459 58.1924 50.6299 58.128C50.9673 58.1059 51.1171 58.2319 50.9622 58.4085C50.5683 58.8576 46.7656 56.6903 44.9669 54.9912C40.1799 50.4711 38.5737 42.6558 41.1846 36.588ZM69.593 34.1774C68.4029 32.2655 64.7751 29.5647 61.9123 28.4594C56.5798 26.4008 50.5464 27.3174 46.2542 30.8386C40.2111 35.7967 38.7198 44.1931 42.6656 51.0397C44.3248 53.9186 47.812 57.2555 49.0755 57.1728C49.3328 57.1559 48.6511 56.2762 47.5612 55.2171C45.1729 52.8986 44.5009 50.8688 45.1642 47.98C45.5891 46.1305 45.5204 45.6314 44.691 44.5294C42.8342 42.064 43.4241 37.4888 45.7362 36.4237C46.1533 36.2315 46.7962 35.1948 47.165 34.1195C48.061 31.5072 49.5241 29.817 51.6243 28.9681C53.089 28.376 53.7204 28.4139 55.6934 29.2149C56.9779 29.7359 58.7299 30.1164 59.5871 30.0602C61.3947 29.9419 63.5695 31.0969 63.6426 32.2141C63.6704 32.6383 64.3614 33.1992 65.1776 33.4607C65.9938 33.7223 67.462 34.2159 68.4393 34.5573C70.1441 35.1533 70.1912 35.1381 69.593 34.1774ZM78.7054 32.2283C76.4476 32.7995 81.7738 30.4605 89.2365 27.6032C89.6791 27.4338 90.094 27.2748 90.4828 27.1259C94.8344 25.4588 95.9152 25.0448 95.9763 25.162C95.9964 25.2007 95.9052 25.2974 95.7839 25.4262L95.7831 25.427L95.7822 25.428C95.7626 25.4487 95.7423 25.4703 95.7215 25.4926C95.7081 25.507 95.6946 25.5217 95.6809 25.5366C95.171 26.0948 81.2377 31.5874 78.7054 32.2283ZM135.044 33.5793C132.599 29.7573 130.825 28.2642 126.707 26.561C123.883 25.393 122.382 25.1192 119.145 25.1831C116.924 25.2265 114.983 25.4958 114.831 25.7816C114.604 26.2103 124.121 50.5962 127.499 58.2404L128.461 60.4156L130.074 59.4528C136.274 55.7518 139.463 49.4759 138.894 42.0975C138.436 36.1614 135.352 30.466 131.096 27.6989C129.314 26.5398 129.424 26.7186 131.974 29.1164C133.579 30.6253 135.322 32.7246 135.847 33.7815C137.312 36.7292 137.01 36.6532 135.044 33.5793ZM126.686 59.0701C126.642 58.5772 123.702 51.1114 120.153 42.4795C115.773 31.8277 113.438 26.7522 112.888 26.683C111.409 26.4977 106.057 31.1314 104.279 34.1382C102.14 37.753 101.186 42.4704 101.814 46.321C102.132 48.2673 102.106 48.8671 101.736 48.1758C100.951 46.711 100.963 41.0697 101.758 38.0375C102.131 36.6121 103.307 34.0813 104.37 32.413C106.197 29.5485 106.208 29.5002 104.587 31.5501C102.178 34.5949 100.961 37.9158 100.613 42.398C100.341 45.8821 100.455 46.6114 101.794 49.9996C104.182 56.0407 108.942 60.3259 114.999 61.8863C117.597 62.5559 124.546 62.1353 126.316 61.2008C127.392 60.633 127.224 60.6092 125.249 61.0482C121.463 61.8906 117.836 61.914 114.823 61.1162C113.273 60.7061 111.871 60.1827 111.708 59.9529C111.544 59.7232 112.684 59.9292 114.242 60.4101C118.896 61.8489 126.854 60.9917 126.686 59.0701ZM107.436 29.109C107.917 28.6786 108.304 28.2368 108.296 28.1278C108.268 27.6948 107.854 28.0014 107.224 28.9232C106.624 29.8006 106.644 29.8178 107.436 29.109ZM104.177 44.0201C104.202 39.9138 105.635 36.4381 108.287 34.0507C109.18 33.2476 110.087 32.5762 110.304 32.5588C111.173 32.4893 110.659 33.3997 108.953 34.9541C106.463 37.2221 104.946 41.3564 105.192 45.2062C105.328 47.335 105.2 48.1641 104.771 47.9364C104.368 47.7223 104.163 46.3681 104.177 44.0201ZM60.0745 45.6002C60.9183 42.5463 60.7838 42.0176 58.8245 40.6741C57.8611 40.0136 56.5089 38.9665 55.8194 38.3473L54.565 37.2208L54.0643 39.8891C53.7893 41.3562 53.3659 42.452 53.1239 42.3236C52.3579 41.9166 50.6297 43.3288 50.6939 44.3097C50.7649 45.3942 52.9977 47.4032 54.0555 47.334C54.448 47.3083 55.2133 47.6392 55.7562 48.0698C57.3504 49.3331 59.361 48.1831 60.0745 45.6002ZM33.9007 44.5905C33.4096 44.5889 32.0366 44.2819 30.8494 43.9078C24.0049 41.7515 15.7765 46.1197 13.246 53.2534C11.9883 56.7989 12.2905 62.3351 13.9076 65.3695C15.1452 67.6915 18.8555 71.1913 19.243 70.4023C19.3666 70.1511 19.6887 69.0984 19.9592 68.0633C20.613 65.5625 21.841 63.9601 24.3895 62.2834L26.4956 60.8977L24.8421 60.4394C23.9325 60.1877 22.3423 59.2512 21.3083 58.3587C19.6491 56.9268 19.4417 56.4864 19.547 54.6161C19.755 50.9321 21.5653 48.9168 25.5929 47.8847C27.0098 47.5219 27.7416 47.6484 28.9263 48.4608C31.367 50.1348 32.2171 51.9638 31.8144 54.6759L31.469 57.0043L31.5453 54.489C31.6197 52.0319 31.5874 51.9759 30.1535 52.0698C29.3462 52.1227 28.2031 51.8482 27.6133 51.4603C26.1608 50.5037 26.0921 50.5293 25.1652 52.3626C24.7189 53.2453 23.4381 54.4448 22.319 55.0286C20.467 55.9949 19.5837 57.5182 20.9262 57.4303C21.2293 57.4105 22.0387 57.9637 22.7242 58.6592C23.4098 59.3552 24.5424 59.929 25.2408 59.9345C25.9594 59.9398 26.6438 60.3432 26.8168 60.8624C27.0136 61.4547 27.6242 61.7482 28.5345 61.6885C30.3421 61.5702 31.3375 60.5247 30.4927 59.6324C30.0453 59.1602 30.0923 58.7475 30.6687 58.0904C31.101 57.5976 31.4685 57.4002 31.4851 57.6527C31.5016 57.9048 31.2574 58.4049 30.9427 58.7637C30.5074 59.2599 30.8206 59.3124 32.2497 58.9836C34.9294 58.3664 36.5743 58.8062 39.1187 60.8191C40.3449 61.7894 41.4799 62.4333 41.6408 62.2505C41.8011 62.0672 40.3263 58.0193 38.3629 53.2557C35.6877 46.7651 34.5693 44.5927 33.9007 44.5905ZM56.1063 44.0134C55.8269 44.4033 54.8465 42.9084 54.7865 42.0012C54.758 41.566 55.0845 41.782 55.514 42.4821C55.9429 43.1807 56.2095 43.8698 56.1063 44.0134ZM137.297 37.7553C137.157 38.1857 137.024 38.0692 136.959 37.4578C136.9 36.9046 137.004 36.586 137.19 36.7493C137.376 36.9126 137.425 37.3655 137.297 37.7553ZM149.921 59.6733C148.369 55.6316 143.378 39.3856 143.36 38.316C143.34 37.104 143.594 37.8499 146.617 47.8592C148.164 52.9788 150.349 59.3758 151.472 62.0746L151.717 62.6626C153.945 68.0156 154.481 69.3015 155.268 69.4807C155.517 69.5373 155.791 69.4834 156.152 69.4123C156.192 69.4043 156.234 69.396 156.277 69.3877C157.72 69.1083 157.724 69.1138 156.465 69.6529C155.758 69.9554 153.402 70.2962 151.23 70.4105L147.28 70.6184L150.788 70.2048L154.295 69.7907L152.729 66.3497C151.868 64.457 150.605 61.4523 149.921 59.6733ZM130.346 57.7359C135.33 54.0415 137.71 49.1912 137.748 42.6471C137.772 38.5107 137.781 38.4847 138.132 41.4678C138.84 47.4794 136.225 53.966 131.692 57.4449C130.346 58.4774 128.989 59.3394 128.675 59.36C128.362 59.3805 129.114 58.6495 130.346 57.7359ZM55.8013 45.6342C55.3671 45.6626 54.9969 45.4564 54.9785 45.176C54.9602 44.896 55.3093 44.7796 55.7543 44.9175C56.1994 45.0559 56.5696 45.262 56.5771 45.3757C56.5845 45.4894 56.2354 45.6058 55.8013 45.6342ZM56.6293 51.3067C56.6813 51.2055 57.0142 50.688 57.3683 50.1559C57.9443 49.2916 57.8643 49.1985 56.6145 49.2804C55.3599 49.3625 55.2842 49.4811 55.8754 50.4312C56.238 51.0136 56.5772 51.4073 56.6293 51.3067ZM108.767 50.8568C110.868 49.9767 113.749 48.8521 115.17 48.3585C118.409 47.2332 118.465 47.228 117.4 48.1523C116.917 48.5707 113.854 49.8933 110.593 51.0914C107.331 52.289 104.671 53.4239 104.682 53.6129C104.694 53.8024 105.788 55.0086 107.114 56.2938L109.526 58.6303L115.369 56.3093C118.583 55.0329 121.445 54.0496 121.73 54.1244C122.015 54.1993 119.737 55.2469 116.668 56.4531C113.598 57.6592 110.952 58.8625 110.788 59.1274C109.965 60.4502 102.461 52.3151 102.355 49.985C102.335 49.5503 102.703 49.9426 103.174 50.8563C103.644 51.7699 104.235 52.5043 104.489 52.4877C104.741 52.4712 106.667 51.7374 108.767 50.8568ZM27.0749 56.4993C26.2498 56.5533 25.4926 55.5057 25.4948 54.3133C25.4953 53.974 25.6462 54.0428 25.8299 54.4668C26.0136 54.8908 26.5561 55.5095 27.0361 55.8412C27.8298 56.3901 27.8332 56.4496 27.0749 56.4993ZM27.3846 58.0565C26.6174 58.0993 26.5985 58.0287 27.2501 57.5448C28.2369 56.8111 28.9336 56.7655 28.5657 57.4586C28.4057 57.7598 27.8742 58.0287 27.3846 58.0565ZM31.4907 61.8311C31.9633 61.9777 32.4715 61.9593 32.6201 61.7905C32.7681 61.6212 32.6678 61.1473 32.3962 60.737C31.9722 60.0968 31.813 60.1025 31.2664 60.7777C30.7413 61.4273 30.7802 61.6102 31.4907 61.8311ZM55.8514 59.1776C56.3295 59.5464 53.4915 59.4325 52.4512 59.0409C51.6958 58.7568 52.0116 58.6886 53.4934 58.8157C54.6626 58.9161 55.7239 59.0792 55.8514 59.1776ZM61.0138 58.8243C60.8505 59.0104 60.3976 59.0591 60.0082 58.9319C59.5773 58.7915 59.6939 58.6586 60.3053 58.5932C60.8584 58.5343 61.177 58.6381 61.0138 58.8243ZM66.2918 69.6329C65.9913 69.3699 91.2145 59.056 96.4654 57.2948C101.045 55.7589 101.277 55.7125 100.909 56.4057C100.378 57.4054 66.9243 70.1882 66.2918 69.6329ZM57.8294 73.1486C58.0603 72.0247 58.432 70.0831 58.6556 68.8328C59.0489 66.6308 59.7315 65.8758 60.2281 67.0931C60.5738 67.942 60.1613 74.6612 59.6639 76.2813C59.0509 78.2769 57.5929 78.0832 54.5114 75.5992C51.5716 73.2291 52.0913 72.5059 55.498 74.2261L57.4094 75.1918L57.8294 73.1486ZM137.398 69.989C138.343 68.764 138.343 68.6239 137.406 66.9497C136.401 65.1552 134.818 64.6923 134.391 66.069C134.124 66.9284 135.107 68.1916 136.309 68.5346C136.945 68.716 136.922 68.7867 136.199 68.8668C135.063 68.993 135.035 70.0417 136.17 69.9674C136.654 69.9358 136.871 70.1927 136.699 70.5934C136.539 70.9675 136.853 70.6953 137.398 69.989ZM73.6586 83.416C72.588 83.1352 92.8954 74.8819 103.203 71.4087C106.094 70.4341 108.248 70.0061 107.823 70.4895C107.091 71.3249 74.5297 83.6444 73.6586 83.416ZM138.47 70.5567C138.752 70.7063 139.235 70.4791 139.545 70.0519C139.878 69.5925 139.899 69.1641 139.596 69.0032C139.315 68.8536 138.831 69.0808 138.521 69.508C138.188 69.9674 138.167 70.3958 138.47 70.5567ZM146.063 70.1981C145.711 70.368 145.119 70.4068 144.747 70.2842C144.376 70.1621 144.664 70.0233 145.388 69.9759C146.111 69.9285 146.416 70.0286 146.063 70.1981ZM138.416 72.8153C138.837 72.7877 139.047 72.5758 138.882 72.344C138.718 72.1128 138.36 71.938 138.088 71.9558C137.815 71.9737 137.605 72.1856 137.621 72.4266C137.637 72.6681 137.994 72.8429 138.416 72.8153ZM139.538 75.5725C140.773 77.17 142.755 78.14 142.681 77.1106C142.664 76.8723 142.063 75.8542 141.344 74.8469C140.367 73.4772 139.805 73.1191 139.114 73.4239C138.252 73.8038 138.28 73.9468 139.538 75.5725ZM63.1536 86.3166C63.2814 85.3548 63.5694 83.6506 63.794 82.5298C64.0182 81.4095 64.4634 80.4756 64.7828 80.4547C65.5548 80.4042 65.5362 88.0711 64.7596 90.1011C64.0999 91.8259 63.5337 91.9687 61.6563 90.884C57.5302 88.4996 55.8637 85.7041 59.7323 87.6583C62.1202 88.8639 62.8534 88.5765 63.1536 86.3166ZM79.2434 98.2798C80.4078 97.2892 98.6183 89.8539 106.11 87.3103C119.966 82.6048 113.356 86.3164 96.1541 92.8992C84.0867 97.5171 77.7811 99.5239 79.2434 98.2798ZM139.959 91.3714C139 91.3835 142.179 89.8621 145.775 88.5876C149.686 87.2012 152.234 86.5867 151.741 87.1485C151.512 87.4097 140.477 91.3645 139.959 91.3714ZM68.4363 102.412C68.8278 102.386 69.3746 100.728 69.7714 98.3609C70.2241 95.6624 70.6917 94.337 71.2027 94.3035C71.8236 94.2628 71.9407 94.9047 71.8446 97.8288C71.6949 102.395 71.0206 105.091 69.9591 105.368C68.858 105.656 64.3482 102.642 64.0239 101.402C63.787 100.496 63.8987 100.498 65.7723 101.445C66.8731 102.001 68.0717 102.436 68.4363 102.412ZM85.8343 117.155C86.1199 116.617 100.284 110.865 112.878 106.173C122.424 102.616 123.132 103.302 114.047 107.307C109.105 109.487 96.0321 114.468 91.5803 115.868C85.85 117.669 85.5224 117.742 85.8343 117.155ZM76.4889 119.985C76.6252 119.177 77.0069 117.249 77.3373 115.702C78.2463 111.447 79.1312 112.007 79.0404 116.781C78.9643 120.823 78.0755 124.506 77.1625 124.565C76.4189 124.614 71.0283 120.803 70.9889 120.201C70.9419 119.484 71.2304 119.524 73.6552 120.567C73.7641 120.614 73.8683 120.659 73.9681 120.702C75.2566 121.258 75.8044 121.495 76.0839 121.314C76.2906 121.181 76.3504 120.82 76.4545 120.192C76.4654 120.126 76.4768 120.057 76.4889 119.985Z" fill="#015DBB"/>
</svg>
